PathFileType	3	(X/Y/Z)	D:\minhoCalibration\240510\subject4_KPNP\preferred\preferred10.trc
DataRate	CameraRate	NumFrames	NumMarkers	Units	OrigDataRate	OrigDataStartFrame	OrigNumFrames
200.0	200.0	19	10	mm	200.0	235	95	
Frame#	Time	Left_Ankle_Outer1			Left_Ankle_Inner1			Left_Knee_Outer1			Left_Knee_Inner1			Left_Wrist1			Right_Wrist1			Right_Knee_Inner1			Right_Knee_Outer1			Right_Ankle_Inner1			Right_Ankle_Outer1			
		X1	Y1	Z1	X2	Y2	Z2	X3	Y3	Z3	X4	Y4	Z4	X5	Y5	Z5	X6	Y6	Z6	X7	Y7	Z7	X8	Y8	Z8	X9	Y9	Z9	X10	Y10	Z10	
235	1.165	-483.82462	474.85413	1366.8927	-432.96719	439.77518	1280.51	-763.11151	738.35413	1039.1785	-668.72278	716.06561	977.16144	-551.73596	1103.4138	1238.8518	-248.68271	950.05756	1356.0182	-363.73376	531.79425	1158.3829	-274.76474	543.7132	1221.3104	-440.108	80.062195	1314.4229	-392.17404	91.919418	1340.3147
236	1.17	-490.07663	488.36609	1351.365	-437.60049	454.20361	1266.2498	-758.17377	754.2774	1017.3215	-660.17102	732.04059	958.41089	-546.5531	1109.9423	1231.4113	-249.84265	952.53741	1358.2263	-362.32254	534.18799	1159.0612	-273.98251	546.39661	1223.2627	-439.81473	82.507591	1313.278	-392.00592	93.94696	1339.7854
237	1.175	-497.14261	502.04086	1337.0769	-442.64157	468.73114	1252.5804	-752.19769	770.76849	995.42035	-652.91779	747.64929	939.63507	-541.91882	1116.9253	1223.8936	-251.3074	954.50134	1360.4808	-360.45551	536.65503	1159.3879	-273.0448	548.92755	1224.993	-439.93619	84.9282	1311.825	-392.4324	96.126305	1338.974
238	1.18	-504.93127	516.30151	1323.2651	-447.35471	483.51096	1242.0466	-744.94	787.54968	973.65765	-643.60187	763.34576	921.79138	-536.30145	1123.1552	1216.7928	-252.65321	956.69244	1363.3683	-357.67416	539.0152	1159.0421	-272.05093	551.5683	1226.8055	-440.33023	87.351822	1309.9785	-393.36707	98.469734	1338.0621
239	1.185	-513.2851	531.19708	1309.7885	-452.49466	498.15057	1230.3656	-736.57147	804.66449	952.18384	-633.87903	779.02209	904.74933	-530.65997	1129.5696	1209.724	-254.86276	958.09149	1365.9854	-354.6438	541.31091	1158.5551	-270.91754	554.07257	1228.6204	-441.79245	90.242035	1308.2957	-394.47418	100.49979	1336.7183
240	1.19	-522.25366	546.75482	1297.3007	-459.12234	512.57391	1219.7651	-727.14349	822.27936	931.02527	-622.46344	794.4884	887.79321	-524.87964	1135.8993	1202.9329	-257.23511	959.3797	1368.963	-351.37527	543.69061	1158.0939	-269.65277	556.31238	1230.5221	-442.44644	92.707619	1305.6221	-396.22998	102.96287	1335.5074
241	1.195	-531.83252	562.50812	1284.913	-465.96683	526.85596	1210.4198	-716.54889	839.90491	910.48199	-611.10834	809.6684	871.89227	-518.62848	1142.0667	1196.3082	-259.95273	960.48907	1372.0726	-347.44836	545.53363	1157.3143	-268.62094	558.58606	1232.5658	-444.27304	95.392303	1303.1741	-398.13837	104.85869	1333.7395
242	1.2	-542.52856	578.42993	1273.2686	-474.65674	541.02368	1202.6108	-704.76892	857.59735	890.65204	-598.00793	824.96313	856.54889	-512.12775	1147.9951	1189.774	-262.98111	961.10498	1375.4519	-342.60883	547.7627	1156.212	-267.44781	560.61719	1234.7236	-445.70526	97.766685	1300.1107	-400.75812	107.21547	1332.6128
243	1.205	-554.08661	594.72119	1261.3478	-483.34177	556.4726	1194.0328	-691.53815	874.85913	871.39111	-583.69745	839.60504	841.30341	-505.41245	1153.9989	1183.834	-266.4993	961.56195	1379.1024	-338.4097	549.61487	1155.7574	-266.30951	562.73285	1237.2318	-447.37805	100.17803	1296.7506	-403.302	108.99561	1330.3613
244	1.21	-566.58923	611.17444	1249.7046	-493.27472	570.85016	1186.6598	-677.27637	892.04187	853.32385	-569.00275	854.06372	827.422	-498.57855	1159.6986	1178.2341	-270.5943	961.44873	1383.1359	-333.36343	551.31317	1154.9473	-265.29697	564.53784	1239.9238	-449.26205	102.24219	1292.8759	-406.51025	110.98083	1328.4319
245	1.215	-579.83386	628.35071	1237.6019	-504.32874	585.92273	1179.1239	-661.15216	908.75311	835.74323	-554.1734	867.50146	815.12494	-491.09195	1164.891	1172.8845	-275.57913	961.27393	1386.8796	-328.17111	552.81183	1154.1348	-264.9733	566.25525	1242.5754	-451.07162	104.84853	1289.1832	-409.6124	113.04611	1325.8826
246	1.22	-593.61548	645.8988	1225.2229	-516.52118	600.61127	1171.2787	-644.55688	925.54315	819.47803	-538.51166	880.13654	803.41876	-483.45163	1170.2863	1167.6338	-280.91833	960.73474	1390.6643	-322.9028	554.20752	1153.4723	-265.16141	567.63257	1245.1624	-453.27621	107.46631	1285.0958	-412.65927	115.55811	1323.326
247	1.225	-607.92902	663.92456	1212.2683	-530.23138	615.51117	1163.4067	-626.44025	941.62177	804.07379	-520.62445	893.1853	793.11243	-475.61047	1175.1793	1162.8889	-286.94778	959.89313	1394.1831	-317.60471	555.4483	1153.5283	-265.50174	568.93335	1247.8713	-455.10309	109.9812	1280.702	-415.88239	117.55769	1320.2583
248	1.23	-622.64697	682.35162	1198.5869	-544.53259	630.62909	1154.4388	-606.51526	957.1803	789.61206	-503.22015	904.50928	783.2948	-467.99536	1179.8347	1158.7028	-293.60992	958.85773	1397.4833	-312.43338	556.14722	1153.1561	-266.52893	570.31909	1250.2404	-456.53162	112.25757	1275.5532	-419.03418	119.83533	1316.8727
249	1.235	-637.74487	701.46765	1183.8693	-559.52026	646.03485	1144.4541	-585.85077	972.099	776.56934	-484.57425	914.60834	774.9649	-459.69016	1184.1887	1154.4706	-300.9332	957.59583	1400.2767	-307.05511	557.74658	1152.8612	-267.76971	571.69556	1252.4678	-458.0181	114.52644	1270.6581	-422.0708	122.1124	1313.2654
250	1.24	-653.25281	720.95441	1168.0973	-575.85388	661.87494	1133.7457	-563.62469	986.04865	765.31409	-465.56293	923.659	768.55054	-451.94434	1188.1921	1150.9622	-308.8894	956.20294	1402.9492	-303.03745	558.3667	1153.0017	-269.21634	572.92383	1254.4716	-460.14471	117.30072	1265.616	-425.06891	124.37793	1309.4358
251	1.245	-669.40491	741.39221	1150.9604	-592.56934	678.23279	1121.4462	-540.55371	999.53815	755.34338	-445.65442	932.28925	763.68213	-444.21365	1191.7489	1147.9286	-317.93173	955.17682	1404.4399	-298.93298	559.91528	1152.9379	-270.96622	574.28033	1256.2428	-461.41373	120.01678	1260.8121	-427.82529	126.69415	1305.5154
252	1.25	-685.64514	762.49884	1132.1223	-610.15607	695.74835	1107.7819	-516.6424	1011.1299	747.32892	-426.19989	938.68079	760.0694	-436.35754	1195.0961	1145.0696	-327.10245	953.48407	1405.6541	-295.75873	560.98944	1152.8324	-272.66223	575.93756	1258.0623	-462.6712	122.36494	1255.5668	-430.29803	129.00845	1301.3666
253	1.255	-701.70172	783.98828	1110.9656	-627.98541	713.99506	1093.3695	-491.8237	1021.7832	740.77484	-407.74252	944.20886	757.84125	-429.42834	1197.8156	1143.1769	-336.69641	951.70471	1406.4293	-293.27252	562.7937	1152.5728	-275.05862	577.1853	1258.5989	-464.24887	124.69949	1250.6157	-432.57016	131.27539	1297.3021
